<svg t="1625810403029" class="icon" viewBox="0 0 1024 1024" version="1.1" xmlns="http://www.w3.org/2000/svg" p-id="1102" width="200" height="200"><path d="M48.03113165 299.99452845h1.58893422c-1.58893424-3.17786846-1.58893424-6.3557386 1.58893425-7.94467284v-1.58893425c-12.71147555-6.3557386 30.18975549-52.43483808 36.54549241-54.02377233-1.58893424-3.17786846-1.58893424-4.76680268 1.5889359-6.35573693-3.17786846 0 19.06721417-30.18975549 19.06721248-30.18975547v-3.17786848l1.58893591-1.58893591 1.58893423 3.17787014 11.1225413-11.12254132s28.60082124-33.36762395 30.18975549-36.54549407c1.58893424 0 3.17786846 1.58893424 4.76680269 3.17787014 4.76680268-3.17786846 6.3557386-6.3557386 6.35573862-12.71147723 4.76680268-4.76680268 11.12254132-9.53360709 17.47827825-14.30040976l9.53360709-3.17786848c-3.17786846-17.47827993 50.84590386-44.49016525 66.73524787-50.84590385l7.94467283-9.53360709 6.35573862 3.17786848v-12.71147555l14.30040978-6.35573695h4.76680271l-1.58893424 6.35573695v4.76680436c6.3557386-1.58893424 9.53360709-4.76680268 12.71147556-11.12254131 0 0 1.58893424 0 1.58893592-1.58893423l1.58893422 3.17786847c11.12254132-7.94467283 22.24508261-14.30040978 33.36762393-19.06721415l1.58893422 3.17786845c9.53360709-3.17786846 46.07909949-14.30040978 52.4348381-9.53360708 4.76680268-3.17786846 7.94467283-6.3557386 12.71147557-7.94467114 6.3557386 1.58893424 12.71147555 0 19.06721413-1.58893424 1.58893424 0 3.17786846 1.58893424 3.1778685 1.58893424 3.17786846-1.58893424 6.3557386-3.17786846 7.94467282-6.35573863 1.58893424 0 28.60082124-1.58893424 28.60082124 0l1.58893424 1.58893422c7.94467283-4.76680268 12.71147555-4.76680268 17.47827825 0 6.3557386 0 11.12254132-1.58893424 15.88934569-6.35573692 9.53360709 9.53360709 17.47827993 12.71147555 27.01188533 6.35573692 6.3557386-1.58893424 12.71147555-1.58893424 19.06721417-1.58893422 1.58893424 1.58893424 3.17786846 3.17786846 4.76680436 6.35573863l4.7668027-3.17787016c0 6.3557386 36.54549237 9.53360709 42.90123102 11.1225413 3.17786846 6.3557386 11.12254132 9.53360709 17.47827992 7.94467287 4.76680268 3.17786846 9.53360709 3.17786846 15.88934404 1.58893421 1.58893424 1.58893424 28.60082124 27.01188701 34.95655817 27.01188702v-3.17786849c1.58893424-1.58893424 3.17786846-1.58893424 4.76680436-1.58893591 15.889344 9.53360709 30.18975549 15.889344 42.90123104 27.01188701 12.71147555-9.53360709 25.4229511 17.47827993 34.95655815 12.71147556h1.58893424c12.71147555 7.94467283 44.49016525 27.01188701 31.77868969 44.49016526 20.65614837 11.12254132 19.06721417-9.53360709 28.60082125 17.47827991 11.12254132-9.53360709 11.12254132 0 17.47827825 6.35573693-1.58893424 1.58893424-12.71147555 11.12254132-15.88934402 11.122543v-4.76680437l3.17786849 3.17786846h11.12254129c0-4.76680268-15.889344-17.47827993-20.65614838-12.71147555-1.58893424 7.94467283-9.53360709-22.24508261-7.94467117-22.24508261-3.17786846 1.58893424-4.76680268 4.76680268-7.94467285 6.35573859l-3.17786847-3.17787015h-6.35573862l3.17786849-4.7668027c3.17786846-9.53360709 0-14.30040978-11.12254133-11.1225413 0-9.53360709 3.17786846-14.30040978-6.35573693-17.47827992v15.88934568h-1.58893423c-1.58893424-1.58893424-9.53360709-11.12254132-15.8893457-4.76680438l-4.7668027-1.58893423-3.17787015 3.17786847c0-3.17786846-7.94467283-7.94467283 0-11.12254132l-6.35573692-1.58893422v11.1225413c-15.889344-6.3557386 6.3557386-30.18975549-9.53360708-33.36762393 1.58893424 7.94467283 0 12.71147555-6.35573862 17.47827991l-4.76680268-1.58893424c-1.58893424 1.58893424-1.58893424 3.17786846 1.58893422 4.76680273-7.94467283 6.3557386-11.12254132-27.01188701-12.71147556-31.77868973 0-1.58893424-3.17786846-1.58893424-4.76680436-1.58893421-3.17786846 6.3557386-3.17786846 14.30040978 0 22.24508262H686.78279253v4.76680438c0-6.3557386-1.58893424-11.12254132-4.7668027-15.88934568-1.58893424 1.58893424-3.17786846 4.76680268-4.76680436 7.94467282-1.58893424-4.76680268-4.76680268-7.94467283-9.53360541-9.53360708v6.35573862c-11.12254132 4.76680268-22.24508261-22.24508261-25.42295277 7.94467116h-1.58893426l-1.5889342-12.71147552-23.83401688-4.76680273V77.5437005c-20.65614837-4.76680268-38.13442831 3.17786846-57.20164246-1.58893422l-1.58893424 4.76680437-3.17786845-3.17787015h-1.58893426l3.17786847 15.8893457h-6.35573864c1.58893424-1.58893424 1.58893424-3.17786846 3.17787017-4.76680271 4.76680268 6.3557386 1.58893424 20.65614837-9.53360705 15.88934402 0 0-1.58893424-3.17786846 0-3.17786849 1.58893424-6.3557386-1.58893424-9.53360709-6.35573862-11.1225413-3.17786846 7.94467283-14.30040978 19.06721417-6.35573694 0l6.35573694-3.17787014c0-3.17786846-3.17786846-4.76680268-6.35573694-3.17786845H527.889344c-1.58893424 0-65.14631365 47.66803373-79.44672342 20.65614838-11.12254132 12.71147555-6.3557386-9.53360709-9.53360708-14.30040979-1.58893424 11.12254132 3.17786846 20.65614837-7.94467284 23.83401688-6.3557386-11.12254132-23.83401687 7.94467283-25.42295108 12.71147554-1.58893424 1.58893424-4.76680268 1.58893424-6.35573861 3.17786847l-1.58893423-4.76680271 6.3557386-1.58893424c1.58893424-6.3557386-1.58893424-11.12254132-6.3557386-11.1225413-9.53360709 25.4229511-6.3557386-14.30040978-22.24508264-3.17787016h-12.71147555l1.58893425 4.7668044-3.17786847 3.17786845c4.76680268 6.3557386 6.3557386 27.01188701-12.71147557 27.011887l1.58893426-3.17787015c-4.76680268-1.58893424-9.53360709-1.58893424-12.71147555 3.17787015-6.3557386 0-12.71147555 3.17786846-15.88934569 7.9446712-4.76680268 6.3557386-11.12254132 7.94467283-20.65614839 4.76680435 1.58893424 1.58893424 1.58893424 4.76680268 0 6.35573693-3.17786846-1.58893424-4.76680268-1.58893424-7.94467118-1.58893422v1.58893422c1.58893424 1.58893424 3.17786846 3.17786846 3.17786846 4.7668044-1.58893424 3.17786846-3.17786846 3.17786846-6.35573861 0-1.58893424 0-3.17786846-1.58893424-3.17786847-1.58893424-1.58893424 3.17786846-3.17786846 6.3557386-3.17786845 9.53360708l-6.35573863-3.17787015h-1.58893422c-1.58893424 3.17786846-4.76680268 4.76680268-3.17786848 9.53360707 0 1.58893424-1.58893424 3.17786846-1.58893591 6.35573862l-4.76680271-4.76680436-12.71147552 11.12254129c-4.76680268 1.58893424-41.3122968 38.13442831-44.49016528 36.5454941-7.94467283 7.94467283-7.94467283 19.06721417-14.30041144 27.01188532h-3.17786846c-4.76680268-4.76680268-4.76680268 0-6.35573863 3.17787015 7.94467283 6.3557386 0 19.06721417-4.76680271 23.83401684h-3.17786846c0-1.58893424-1.58893424-1.58893424-3.17787011-3.17786844-4.76680268 4.76680268-4.76680268 11.12254132-9.53360543 15.889344 0 0-22.24508261 50.84590386-28.60082122 55.61270656 0 0 0 1.58893424-1.58893424 1.58893425l11.1225413 1.58893587v1.58893425c-42.90123101 0-34.95655817 143.00410283-31.77868971 162.07131702 3.17786846 19.06721417 11.12254132 106.45861042 31.77868971 115.99221749-1.58893424 0 19.06721417 33.36762395 20.65614839 28.60081955h12.71147555v15.88934569c9.53360709 3.17786846 7.94467283 11.12254132 9.53360709 19.06721416l3.17786847-1.58893592c11.12254132 0 22.24508261 41.3122968 34.95655816 46.07910118 9.53360709 0 25.4229511 25.4229511 33.36762394 31.77868971 0 14.30040978 88.98033051 58.79057504 103.28074196 61.9684435h-1.58893422c23.83401687 7.94467283 76.26885497 27.01188701 100.10287181 15.88934568 9.53360709 6.3557386 25.4229511-11.12254132 30.18975549-12.71147555l3.17786844 4.7668027c12.71147555-3.17786846 39.72336254 9.53360709 47.66803542 9.53360709h7.94467282s6.3557386-19.06721417 11.12254131-14.30040979l1.58893424-3.17787013c4.76680268 1.58893424 7.94467283 1.58893424 12.71147556 1.58893592v11.12254129c19.06721417-1.58893424 9.53360709-27.01188701 22.24508261-28.60082121-1.58893424-1.58893424-4.76680268-3.17786846-6.35573861-4.76680271l4.76680437-4.7668044c4.76680268 0 6.3557386 3.17786846 7.94467287 7.94467286l3.17786846-3.17786846 3.17786846 4.76680271c3.17786846-1.58893424 4.76680268 0 4.76680437 3.17786846l11.12254131-7.94467117 1.58893424 6.35573693h1.58893424c0-4.76680268 3.17786846-7.94467283 6.35573862-9.53360709l6.35573693-1.58893424-6.35573693-4.76680269c9.53360709 7.94467283 7.94467283-9.53360709 4.76680267-12.71147722 1.58893424-1.58893424 3.17786846-3.17786846 4.76680275-3.17786847h3.17787012c6.3557386 1.58893424 12.71147555 0 17.47827826-4.7668027 1.58893424 3.17786846-4.76680268 6.3557386 0 9.53360706 1.58893424-4.76680268 3.17786846-7.94467283 6.35573859-11.12254129v6.35573693h4.76680272c0 11.12254132 3.17786846 15.889344 15.88934569 19.06721415l-1.58893425-19.06721415h1.58893425l1.58893422 14.30040978 7.94467284-4.76680269-3.17787013-3.17786847 7.94467286-6.35573862h1.58893421l11.1225413 4.76680436-1.58893422 4.76680273c11.12254132-4.76680268 11.12254132-9.53360709 3.17787014-17.47827993v1.58893591-1.58893591l1.58893423-3.17786848 4.76680272-3.17786846 3.17786846 1.58893423c-1.58893424-9.53360709 3.17786846-12.71147555 12.71147722-9.53360706l3.17786848-6.35573863-6.35573863-3.17786848c7.94467283 1.58893424 3.17786846 6.3557386 3.17787015 11.12254135l4.7668027-3.17786849 3.17786848 4.76680269c0-4.76680268 1.58893424-7.94467283 4.76680437-11.12254129l-6.35573861 3.17787013v1.58893423l14.30041146-1.58893423-1.58893591-4.76680439h3.17787014c1.58893424 1.58893424 14.30040978-22.24508261 30.18975547-19.06721414l-3.17787012 4.76680436 1.5889342 1.58893425 3.17787016-3.17786847c4.76680268-3.17786846 7.94467283-6.3557386 11.12254131-9.53360708-1.58893424-3.17786846-4.76680268-15.889344 0-17.47827991 1.58893424 1.58893424 3.17786846 3.17786846 3.17786846 6.35573862 6.3557386-9.53360709 7.94467283-1.58893424 15.88934402 6.35573692 1.58893424 0 27.01188701-4.76680268 28.60082123-3.17786848l4.7668044-1.58893422c0 4.76680268 3.17786846 9.53360709 6.35573691 3.17786846 4.76680268 0 9.53360709-1.58893424 12.71147555-4.76680268 4.76680268 0 6.3557386-6.3557386 7.94467284-11.12254133 3.17786846-1.58893424 9.53360709 3.17786846 9.53360709 3.17786847 7.94467283 19.06721417 6.3557386 39.72336254 7.94467286 60.37951094 3.17786846 0 11.12254132 9.53360709 6.35573693 12.71147554l-7.94467119-12.71147554h-1.5889359c7.94467283 20.65614837 3.17786846 42.90123101-11.12254131 63.55737942h-3.17786848c-7.94467283-7.94467283-4.76680268 0-4.76680268 7.94467117-7.94467283 3.17786846-12.71147555 7.94467283-14.30041145 17.47827991v6.35573862l-7.94467117-3.17787016c-6.3557386-1.58893424-12.71147555 0-17.47827992 4.76680438l1.58893422 3.17786847c-3.17786846 1.58893424-7.94467283 1.58893424-6.35573693 7.94467286l-9.53360709-4.76680437v7.94467282h-3.17787015l1.58893424 7.94467285c-4.76680268-1.58893424-7.94467283 0-11.12254131 4.7668027-11.12254132 6.3557386-27.01188701 20.65614837-28.60081957 33.36762395l-4.76680436-3.17786846-1.58893426 4.76680269c-3.17786846-4.76680268-7.94467283-7.94467283-12.71147553-11.1225413 0 7.94467283 3.17786846 12.71147555-6.35573861 7.94467283l-6.35573694 3.17786847c4.76680268 4.76680268 0 9.53360709 0 14.30041144l-12.71147555-14.30041144c-7.94467283 7.94467283-17.47827993 11.12254132-25.42295277 19.06721415-3.17786846-1.58893424-6.3557386 1.58893424-7.94467118 6.35573862l-3.17787011-4.76680438-3.17786849 4.76680438c-6.3557386-3.17786846-11.12254132-3.17786846-17.47827993 3.17786848l1.58893424-6.35573694-20.65614671 9.53360538-1.5889359-4.7668027-7.94467118 4.7668027H655.00410283v-3.17786844c-9.53360709-1.58893424-14.30040978 4.76680268-11.1225413 14.30040978l-6.35573692-4.76680272c-4.76680268 4.76680268-4.76680268 12.71147555-12.71147558 14.30040979l-7.94467282-7.94467117c-3.17786846 0-7.94467283 0-11.12254133 3.17786845l1.58893424 3.17786849v9.53360707l-6.35573861-3.17786847c-4.76680268 4.76680268-9.53360709 1.58893424-12.71147554 0 0 1.58893424-17.47827993 4.76680268-19.06721416 7.94467283-7.94467283 0-17.47827993 1.58893424-25.42295111 1.58893427V999.12570029h-7.94467283l-12.71147555-6.35573695c-1.58893424 7.94467283-6.3557386 7.94467283-11.12254132 3.17786847V1000.71463617c-3.17786846-1.58893424-3.17786846-4.76680268-3.17786846-9.53360708-6.3557386-1.58893424-12.71147555 0-15.88934571-6.35573858-3.17786846-1.58893424-4.76680268-3.17786846-7.94467284-3.17786848L480.2213103 967.34701056h-6.35573861c-1.58893424 12.71147555-3.17786846 12.71147555-3.17786849 12.71147724v3.17786845c3.17786846 0-1.58893424 12.71147555-1.58893421 3.17786849v-11.12254133l-4.76680272 3.17786849v1.5889359l-6.35573859-4.76680439-3.17786849 4.76680439c-11.12254132-7.94467283-44.49016525 3.17786846-52.4348381-9.53360707l-1.58893421 3.17786845v-1.58893423c-3.17786846 0-36.54549237-14.30040978-36.54549408-14.30040977-4.76680268-11.12254132-17.47827993-7.94467283-28.60081957-12.71147723-4.76680268-4.76680268-7.94467283-9.53360709-12.71147723-14.30040977-7.94467283 3.17786846-15.889344 3.17786846-22.24508261-4.7668027 0 0-1.58893424 0-1.58893425-1.58893591-4.76680268-6.3557386-25.4229511-9.53360709-28.60082124-20.65614673-7.94467283-1.58893424-15.889344-1.58893424-23.83401685-1.5889359-1.58893424-17.47827993-12.71147555-19.06721417-28.60081957-25.42295111l-1.58893591-4.76680269-4.76680269 1.58893422c-4.76680268-11.12254132-25.4229511-23.83401687-36.54549242-28.60082122l-1.58893588 1.58893421c-1.58893424-4.76680268-20.65614837-20.65614837-19.06721252-22.24508261-6.3557386-7.94467283-15.889344-20.65614837-25.42295275-23.83401687-15.889344 0-23.83401687-28.60082124-28.60081958-39.72336256 1.58893424-1.58893424 0-3.17786846-3.17787012-4.76680269v4.76680269h6.35573859s-4.76680268-6.3557386-9.53360706-7.94467282c-3.17786846 0-1.58893424-23.83401687-11.12254133-17.47827826-1.58893424-4.76680268-3.17786846-9.53360709-4.76680271-12.71147555 0-11.12254132-11.12254132-25.4229511-19.06721412-31.7786897l-3.17787016-19.06721415c-7.94467283-4.76680268-14.30040978-12.71147555-17.47827827-22.24508264-1.58893424-4.76680268-3.17786846-9.53360709-4.76680436-15.88934569v-12.71147554c-15.889344-14.30040978-14.30040978-52.43483808-23.83401686-69.91311635 9.53360709-12.71147555 6.3557386-22.24508261-6.35573695-28.60082124v-1.58893421c0-6.3557386 4.76680268-38.13442831 15.88934404-42.90123104V474.77732267l-11.12254132 3.17786845c1.58893424-4.76680268 1.58893424-11.12254132 1.58893423-15.88934569-1.58893424-7.94467283 3.17786846-17.47827993-3.17786847-25.42295108 4.76680268-11.12254132 11.12254132-31.7786897 4.76680272-44.49016526 3.17786846 0 6.3557386 0 6.35573858 1.58893424h-3.17786846c0-6.3557386-1.58893424-7.94467283-1.5889359-9.53360708 7.94467283-4.76680268 20.65614837-49.25696962 20.65614839-58.79057505-6.3557386-14.30040978 11.12254132-25.4229511 14.30041146-25.42295275z" fill="#000000" p-id="1103"></path><path d="M119.53318224 605.06994993c-3.17786846 4.76680268-4.76680268 11.12254132-3.17786848 17.47827827l6.35573859 7.94467284 7.94467118-12.71147554c-15.889344 0-1.58893424-7.94467283-11.12254129-12.71147557zM489.75491739 77.5437005h-3.17786849c-6.3557386 1.58893424-6.3557386 6.3557386-1.58893591 11.12254299 3.17786846 0 7.94467283 0 11.12254301-1.58893591v-3.17786845c-4.76680268 0-6.3557386-3.17786846-6.35573861-6.35573863zM416.66393088 106.14452175c15.889344-12.71147555-23.83401687-15.889344 0 0zM798.00820735 128.38960437c-4.76680268-3.17786846-9.53360709-4.76680268-15.88934571-4.76680271-3.17786846 3.17786846-3.17786846 4.76680268 3.17786848 6.35573695 4.76680268 1.58893424 9.53360709 1.58893424 12.71147723-1.58893424zM89.34342843 487.48879821c9.53360709 1.58893424 9.53360709-3.17786846 6.35573692-12.71147554h-1.58893421l-4.76680271 12.71147554zM685.19385831 79.1326364c4.76680268 0 9.53360709-3.17786846 9.53360707-7.94467283-1.58893424-1.58893424-4.76680268-1.58893424-6.35573861-1.58893422-1.58893424 3.17786846-3.17786846 6.3557386-3.17786846 9.53360705zM140.18933061 651.14904942c-9.53360709-3.17786846-12.71147555 0-1.58893423 6.35573862l1.58893423-6.35573862zM108.41064091 586.00273579c-3.17786846 6.3557386 19.06721417 12.71147555 0 0zM106.82170668 592.35847274l-1.58893422 1.58893588 7.94467282 9.53360708c1.58893424 0 3.17786846 0 1.58893425-1.58893591l-7.94467285-9.53360705z" fill="#000000" p-id="1104"></path><path d="M113.17744528 601.89207979h1.58893425v15.88934571h3.17786845zM216.45818557 760.78552831l4.76680439 9.53360711c0-6.3557386-1.58893424-9.53360709-4.76680439-9.53360711zM758.28484481 102.96665326c-3.17786846-3.17786846-4.76680268-3.17786846-7.94467286-1.58893424v3.17786849c3.17786846 0 6.3557386 1.58893424 7.94467286-1.58893425zM95.69916535 468.42158406c-4.76680268 1.58893424-4.76680268 4.76680268-1.58893421 6.35573861h1.58893421v-6.35573861zM273.65982805 144.27895005c-4.76680268 4.76680268-4.76680268 6.3557386 0 7.9446712v-7.9446712zM327.68360036 125.2117359l4.76680273-3.17786846c-1.58893424-3.17786846-4.76680268-3.17786846-7.94467118 0l3.17786845 3.17786846zM400.77458688 98.19984891c-1.58893424-3.17786846-3.17786846-3.17786846-6.35573862 0 1.58893424 3.17786846 3.17786846 3.17786846 6.35573862 0zM732.8618937 770.31913542v1.58893424l6.35573695 4.76680436h1.58893421zM858.38771662 203.06952509l-6.35573694-12.71147554c0 1.58893424-1.58893424 3.17786846-1.58893426 4.76680269l-3.17787011 3.17787014c0-1.58893424-1.58893424-1.58893424-1.58893424-3.17787014v-12.71147555l1.58893424-1.58893422c6.3557386-1.58893424 6.3557386-3.17786846 1.58893423-7.94467285 1.58893424-3.17786846 3.17786846-3.17786846 6.35573862 0 4.76680268 3.17786846 7.94467283 9.53360709 9.53360705 14.30041144 1.58893424 1.58893424 1.58893424 3.17786846 4.76680273 3.17786849s7.94467283 6.3557386 6.35573859 9.53360708 1.58893424 4.76680268 4.7668027 4.76680269 7.94467283 7.94467283 7.94467284 9.53360709c-1.58893424 1.58893424-1.58893424 3.17786846-3.17786845 4.76680436-1.58893424 1.58893424-1.58893424 4.76680268-3.17786847 6.35573695-4.76680268-3.17786846-6.3557386-6.3557386-3.17787014-11.12254131-4.76680268-4.76680268-6.3557386 4.76680268-11.12254133 1.58893423 0-3.17786846-1.58893424-6.3557386-1.58893421-9.53360708 0-1.58893424 1.58893424-3.17786846 1.58893421-4.7668027l1.58893426-4.76680271h-4.76680273c0 3.17786846-1.58893424 4.76680268-6.35573859 6.35573694zM888.57747207 242.79288764h4.7668044c0-1.58893424-1.58893424-3.17786846-1.58893592-3.17786847-3.17786846-1.58893424-4.76680268-4.76680268-3.17786848-7.94467283 0-1.58893424 3.17786846-3.17786846 4.7668044-4.7668044h1.58893422c6.3557386-1.58893424 7.94467283-1.58893424 6.35573696 6.35573862 0 3.17786846 0 3.17786846 3.17787011 4.7668027 4.76680268 0 6.3557386 4.76680268 9.53360542 7.94467285s-1.58893424 4.76680268-4.76680271 3.17786846-3.17786846 0-4.76680271 3.17787015c-3.17786846 3.17786846-6.3557386 4.76680268-9.53360707 7.94467284l-4.76680438-4.76680438c1.58893424 0 3.17786846-1.58893424 3.17787016-1.58893422 4.76680268 0 6.3557386-4.76680268 7.94467118-7.94467285s-1.58893424-3.17786846-1.58893424-4.76680271l-3.17786849 3.17786846-4.76680437 4.76680271c-3.17786846-3.17786846-3.17786846-4.76680268-3.17786848-6.35573693zM615.28074195 85.48837335c0 6.3557386 0 12.71147555-1.58893588 19.06721416 0 1.58893424-1.58893424 3.17786846-3.17786849 4.76680269-1.58893424-1.58893424-3.17786846-1.58893424-4.7668027-3.17786845s-4.76680268-3.17786846-6.35573859-1.58893424c-3.17786846-1.58893424-3.17786846-4.76680268-1.58893426-9.53360708l4.76680271 4.76680438h3.17787014v-3.17787016l-3.17787014-3.17786845s1.58893424 0 1.58893592-1.58893425 1.58893424-1.58893424 1.58893422-3.17786846c-4.76680268-1.58893424 0-4.76680268-1.58893422-6.35573862 0 0 0-1.58893424 1.58893422-1.58893422h1.58893424l7.94467283 4.7668027zM588.26885497 96.61091465l-3.17786847-6.35573693 1.58893424-3.17787014h1.58893423l4.76680437 14.30041144c-3.17786846 0-6.3557386-1.58893424-9.53360709-1.58893421-3.17786846-1.58893424-4.76680268 0-7.94467283 1.58893421s-4.76680268 0-4.76680438 0-6.3557386-4.76680268-3.17786846-7.94467282 1.58893424-7.94467283 0-12.71147555h4.76680436c1.58893424 0 1.58893424 1.58893424 1.58893423 3.17786848v4.76680436c3.17786846 3.17786846 6.3557386 4.76680268 9.53360708 7.94467116 1.58893424 0 3.17786846 1.58893424 3.17786849 1.58893426l1.58893423-1.58893426zM724.91722086 145.8678843l-3.17786848 4.76680269-7.94467282-9.53360709h3.17786846c7.94467283-3.17786846 11.12254132 3.17786846 15.88934568 4.7668044 1.58893424 0 1.58893424 1.58893424 3.17786847 1.58893421 4.76680268 1.58893424 3.17786846 4.76680268 3.17786848 6.35573862-1.58893424 3.17786846-3.17786846 4.76680268-4.76680271 3.17786847 0 0-1.58893424 0-1.58893424-1.58893424-3.17786846-1.58893424-4.76680268-6.3557386-7.94467284-9.53360706zM883.81066939 694.05028045c3.17786846 6.3557386-1.58893424 9.53360709-4.76680438 14.30040979-1.58893424 3.17786846-3.17786846 4.76680268-4.76680271 6.3557386h-3.17787014v-3.17786847c1.58893424-4.76680268 3.17786846-7.94467283 7.94467285-11.12254132l4.76680438-6.3557386zM918.76722754 271.39370888v6.35573693h-1.58893422c-1.58893424-3.17786846-4.76680268-6.3557386-6.3557386-9.53360708 0 0 1.58893424-3.17786846 3.17786846-3.17786847h6.35573862c1.58893424 4.76680268 7.94467283 6.3557386 6.35573859 12.71147555l-7.94467285-6.35573693zM651.82623437 109.3223902l-6.35573859 7.94467285-6.35573695-6.35573693v4.7668027c-3.17786846 0-6.3557386-1.58893424-6.35573862-4.7668027V109.3223902c0-1.58893424 0-3.17786846-1.58893422-3.17786845-1.58893424-1.58893424-1.58893424-1.58893424 0-4.76680273 3.17786846 1.58893424 4.76680268 4.76680268 7.94467284 6.35573696s7.94467283 1.58893424 11.12254132-1.58893423l1.58893422 3.17786845zM834.55369974 719.47323153c-1.58893424-4.76680268-3.17786846-4.76680268-6.3557386-1.58893421-1.58893424 1.58893424-3.17786846 1.58893424-4.76680269 3.17786846l-1.58893425-1.58893425 4.7668027-4.76680269c1.58893424-1.58893424 3.17786846-3.17786846 4.76680439-3.17786847 1.58893424-1.58893424 3.17786846-1.58893424 6.35573696-1.58893591 1.58893424 0 1.58893424 6.3557386 0 7.94467286-1.58893424-1.58893424-3.17786846 0-3.17786851 1.58893421zM767.81845186 155.40149136c1.58893424 0 3.17786846-1.58893424 3.17786847-1.58893423s1.58893424 1.58893424 1.58893424 3.17786847 1.58893424 3.17786846 1.58893425 4.76680271c0 1.58893424 1.58893424 3.17786846 1.58893591 4.76680438 0 4.76680268 1.58893424 7.94467283 1.58893422 11.1225413v3.17786848h-1.58893422c-3.17786846-4.76680268-4.76680268-9.53360709-4.7668044-14.30040978 1.58893424-4.76680268 0-7.94467283-3.17786847-11.12254133zM702.67213822 141.1010799c-1.58893424-4.76680268-1.58893424-7.94467283-3.17787013-12.71147553l3.17787013-1.58893423 6.35573694 6.35573859c1.58893424 1.58893424-3.17786846 6.3557386-6.35573694 7.94467117zM801.18607581 203.06952509c3.17786846 3.17786846 4.76680268 1.58893424 7.94467285 0l3.17786846 1.58893423c1.58893424 1.58893424 3.17786846 3.17786846 1.58893424 4.76680436-1.58893424 1.58893424-4.76680268 3.17786846-6.35573693 1.58893424l-1.58893591-1.58893424c-1.58893424-1.58893424-3.17786846-3.17786846-4.76680271-6.35573859zM751.92910619 166.52403269l6.35573862-11.12254133 3.17786846 11.12254133h-9.53360708zM130.65572353 393.74166333c0-6.3557386 1.58893424-11.12254132 1.58893592-17.47827992l1.58893424-1.58893424 1.58893424 1.58893424-4.7668044 17.47827992zM720.15041646 128.38960437c6.3557386-4.76680268 9.53360709-4.76680268 12.71147724 3.17787014l-12.71147724-3.17787014zM848.85410954 250.73756048l-4.76680269-7.94467284 4.76680269-4.76680438c1.58893424 6.3557386 1.58893424 11.12254132 0 12.71147722zM794.83033719 180.82444247c-3.17786846 1.58893424-4.76680268 3.17786846-6.35573693 3.17786848s-1.58893424-1.58893424-3.17787014-1.58893426l6.35573863-6.35573692 3.17786844 4.7668027zM861.56558677 266.6269045c-6.3557386-3.17786846-1.58893424-7.94467283-3.17787015-11.12254132 6.3557386 1.58893424 3.17786846 6.3557386 3.17787015 11.12254132zM664.53770991 115.67812882l-4.76680271 6.35573862c-1.58893424-3.17786846-3.17786846-4.76680268-3.17787015-7.94467284 1.58893424-1.58893424 1.58893424-1.58893424 3.17787015-1.58893424 1.58893424 1.58893424 3.17786846 3.17786846 4.76680271 3.17786846zM751.92910619 144.27895005l-11.12254133-7.94467285c4.76680268-1.58893424 9.53360709 1.58893424 11.12254133 7.94467285zM909.23362047 271.39370888c-4.76680268 0-7.94467283 0-7.94467282-4.76680438l1.58893421-1.58893424s1.58893424 0 1.5889359 1.58893424l4.76680271 4.76680438zM804.36394429 201.48059086c-3.17786846-1.58893424-4.76680268-1.58893424-7.94467118-3.17786848s0-3.17786846 0-4.76680437l7.94467118 4.76680437v3.17786848zM170.37908609 301.58346267v-3.17786846l4.76680437-4.7668027s1.58893424 0 1.58893423 1.58893421 0 1.58893424-1.58893423 3.17786849l-4.76680437 3.17786846zM829.78689705 201.48059086l6.35573693 9.53360706-1.58893424 1.58893425-7.94467284-9.53360708 3.17787015-1.58893423zM769.40738611 177.64657399c-1.58893424-1.58893424-3.17786846-3.17786846-3.17786847-4.76680437 0-1.58893424 0-3.17786846 1.58893422-3.17786846l1.58893425 7.94467283zM872.68812806 231.67034634l4.76680271-6.35573862s1.58893424 1.58893424 1.58893424 3.17787013 0 3.17786846-1.58893424 4.76680271c-1.58893424 0-4.76680268-1.58893424-4.76680271-1.58893422zM365.81802702 110.91132612c1.58893424-1.58893424 3.17786846-1.58893424 4.76680437-1.58893592 1.58893424 0 1.58893424 1.58893424 1.58893424 3.17787016 0 0-1.58893424 3.17786846-1.58893424 1.58893424-3.17786846 0-4.76680268-1.58893424-4.76680437-3.17786848z" fill="#000000" p-id="1105"></path><path d="M527.889344 644.79331083c3.17786846 12.71147555 3.17786846 23.83401687 3.17787017 36.54549406-3.17786846 20.65614837-7.94467283 41.3122968-15.88934571 60.37950928-7.94467283 15.889344-23.83401687 17.47827993-34.95655816 0-14.30040978-22.24508261-28.60082124-41.3122968-14.30040979-73.09098481 11.12254132-25.4229511 6.3557386-60.37951094 4.76680269-88.98033218-1.58893424-19.06721417-14.30040978-12.71147555-25.42295106-4.76680272-44.49016525 27.01188701-90.56926474 52.43483808-135.0594317 79.44672345-6.3557386 4.76680268-14.30040978 7.94467283-20.65614838 11.12254129-3.17786846-1.58893424-4.76680268-3.17786846-4.76680271-3.17786844-34.95655817-77.85778919-42.90123101-73.0909865 33.36762396-108.04754467 58.79057504-27.01188701 100.10287182-76.26885497 143.00410283-125.52582459-65.14631365 47.66803373-111.22541312 12.71147555-157.3045126-27.01188534 39.72336254-19.06721417 77.85778919-36.54549237 114.40328158-57.20164247 6.3557386-3.17786846 7.94467283-15.889344 9.53360709-23.83401685 4.76680268-23.83401687 7.94467283-49.25696962 14.30040977-73.09098649 7.94467283-30.18975549 23.83401687-36.54549237 63.55737942-27.01188532 34.95655817 7.94467283 46.07909949 20.65614837 42.90123097 52.43483807-1.58893424 11.12254132 0 22.24508261 0 36.54549241 34.95655817-14.30040978 58.79057504 6.3557386 82.62459362 23.83401687 17.47827993 12.71147555 15.889344 27.01188701-4.76680273 39.72336255-42.90123101 25.4229511-82.62459356 54.02377232-88.98033216 112.81434906 19.06721417-3.17786846 36.54549237-4.76680268 52.43483809-7.94467287 52.43483808-9.53360709 106.45861042 6.3557386 144.59303875 44.49016525 27.01188701 23.83401687 27.01188701 34.95655817 4.76680271 61.96844518-31.7786897 41.3122968-76.26885497 71.50205225-125.52582458 85.80246203-33.36762395 9.53360709-57.20164081 1.58893424-85.80246207-25.42295275z m-1.58893422-38.13442666c15.889344 4.76680268 33.36762395 15.889344 44.49016526 11.12254133 38.13442831-14.30040978 74.67992074-33.36762395 92.15820063-73.09098651 9.53360709-22.24508261 4.76680268-30.18975549-20.65614838-27.01188531-15.889344 1.58893424-33.36762395 4.76680268-49.25696795 7.94467116-60.37951094 14.30040978-60.37951094 14.30040978-66.73524956 81.03565933zM475.45450763 252.32649472l-19.06721421-3.17787015c-4.76680268 20.65614837-11.12254132 41.3122968-12.71147554 61.96844519 0 4.76680268 9.53360709 15.889344 14.3004098 15.88934567 6.3557386 0 17.47827993-7.94467283 17.47827995-14.30041145 1.58893424-20.65614837 1.58893424-39.72336254 0-60.37950926zM605.74713488 277.74944581c33.36762395-50.84590386 111.22541312-65.14631365 152.53770993-28.60082124 12.71147555 11.12254132 25.4229511 23.83401687 11.1225413 42.90123104s-50.84590386 20.65614837-60.37951095 6.3557386c-27.01188701-36.54549237-60.37951094-44.49016525-103.28074028-20.6561484z" fill="#000000" p-id="1106"></path></svg>