<?xml version="1.0" standalone="no"?><!DOCTYPE svg PUBLIC "-//W3C//DTD SVG 1.1//EN" "http://www.w3.org/Graphics/SVG/1.1/DTD/svg11.dtd"><svg t="1625799471351" class="icon" viewBox="0 0 1024 1024" version="1.1" xmlns="http://www.w3.org/2000/svg" p-id="8843" xmlns:xlink="http://www.w3.org/1999/xlink" width="200" height="200"><defs><style type="text/css"></style></defs><path d="M753.06464 224.384C753.06464 100.608 647.46464 0 516.77664 0c-130.56 0-236.352 100.224-236.352 224.256 0.064 24.704 4.352 48.832 12.544 71.552 76.8 15.552 151.872 40.384 225.408 74.304a1297.28 1297.28 0 0 1 222.336-73.92c8.128-22.848 12.352-47.104 12.352-71.808zM105.70464 772.288c13.248 11.776 32.768 16.64 56.32 16.128a184.32 184.32 0 0 0 41.856-6.208c1.28-9.344 2.304-16.64 3.136-23.552l-36.16-6.592 37.632-8.576a1309.056 1309.056 0 0 0 2.624-35.456l-34.112-4.672 34.944-14.272a826.88 826.88 0 0 0 0-33.856l-41.6-5.76 40.576-14.592a526.72 526.72 0 0 0-1.472-22.08c-0.256-3.264-0.64-6.4-0.96-9.472-67.008-15.552-125.312-14.656-136.96 18.304-18.496 52.544-2.624 118.08 34.176 150.656z m747.648-123.136l-41.728 5.76c-0.384 10.24-0.384 21.12-0.256 33.792l34.88 14.208-33.856 4.8c0.448 10.624 1.408 22.08 2.688 35.52l37.632 8.576-36.16 6.656 3.136 23.424c12.672 3.328 27.2 5.824 42.112 6.272 23.552 0.704 42.88-4.352 56.064-16.128 36.8-32.768 52.672-98.048 34.176-150.848-11.392-32.832-69.76-33.728-136.768-18.176a713.984 713.984 0 0 0-2.56 31.36l40.64 14.784z m8.704 231.616l-5.248-0.32a513.28 513.28 0 0 0-174.016 19.392c-43.84 12.48-87.04 30.72-132.032 55.104l-7.232 4.032v-493.44l2.304-1.408a556.8 556.8 0 0 1 150.144-64.256 602.432 602.432 0 0 1 161.28-18.56l3.84 4.928v160.512c17.792-1.344 34.368-1.28 49.728 0.576V357.76a24.96 24.96 0 0 0-25.024-24.96h-0.64c-133.312-7.424-255.424 21.632-365.44 88.256l-2.56 1.6-2.496-1.6C405.73664 354.56 283.30464 325.696 149.09664 332.864h-0.384a25.152 25.152 0 0 0-25.024 24.96v188.352c15.808-0.768 32.768-0.128 49.728 1.92V381.568l4.864-0.128c55.616-1.28 109.184 5.056 161.28 18.56a557.696 557.696 0 0 1 150.208 64.192l2.304 1.536v493.312l-7.296-3.968a645.44 645.44 0 0 0-132.16-55.04 513.408 513.408 0 0 0-174.016-19.52l-5.12 0.384v-45.312a170.112 170.112 0 0 1-49.792-2.944v75.456l0.128 1.024 0.192 1.92a24.96 24.96 0 0 0 27.712 21.824 473.088 473.088 0 0 1 187.776 14.912c53.888 15.552 106.624 40.128 162.112 74.176h1.088l0.32 0.32h0.256l0.64 0.64 1.088 0.768 3.84 0.32h8.512-0.96 8.448l0.576-0.32h4.864l1.024-0.704 0.64-0.64h0.384l0.32-0.384h1.088c56.064-34.624 108.672-59.136 162.24-74.304a474.048 474.048 0 0 1 187.648-14.848 25.344 25.344 0 0 0 27.904-22.528c0.128-0.256 0.128-0.448 0.128-0.832v-80.256a156.672 156.672 0 0 1-49.728 7.04v44.544h0.128z" p-id="8844"></path></svg>